%TF.GenerationSoftware,KiCad,Pcbnew,8.0.2-8.0.2-0~ubuntu20.04.1*%
%TF.CreationDate,2024-10-24T00:08:04+05:30*%
%TF.ProjectId,GroundStation,47726f75-6e64-4537-9461-74696f6e2e6b,rev?*%
%TF.SameCoordinates,Original*%
%TF.FileFunction,Legend,Bot*%
%TF.FilePolarity,Positive*%
%FSLAX46Y46*%
G04 Gerber Fmt 4.6, Leading zero omitted, Abs format (unit mm)*
G04 Created by KiCad (PCBNEW 8.0.2-8.0.2-0~ubuntu20.04.1) date 2024-10-24 00:08:04*
%MOMM*%
%LPD*%
G01*
G04 APERTURE LIST*
%ADD10C,0.150000*%
%ADD11C,0.000000*%
%ADD12C,0.127000*%
%ADD13C,0.200000*%
G04 APERTURE END LIST*
D10*
X110974819Y-94078095D02*
X111784342Y-94078095D01*
X111784342Y-94078095D02*
X111879580Y-94125714D01*
X111879580Y-94125714D02*
X111927200Y-94173333D01*
X111927200Y-94173333D02*
X111974819Y-94268571D01*
X111974819Y-94268571D02*
X111974819Y-94459047D01*
X111974819Y-94459047D02*
X111927200Y-94554285D01*
X111927200Y-94554285D02*
X111879580Y-94601904D01*
X111879580Y-94601904D02*
X111784342Y-94649523D01*
X111784342Y-94649523D02*
X110974819Y-94649523D01*
X110974819Y-95030476D02*
X110974819Y-95649523D01*
X110974819Y-95649523D02*
X111355771Y-95316190D01*
X111355771Y-95316190D02*
X111355771Y-95459047D01*
X111355771Y-95459047D02*
X111403390Y-95554285D01*
X111403390Y-95554285D02*
X111451009Y-95601904D01*
X111451009Y-95601904D02*
X111546247Y-95649523D01*
X111546247Y-95649523D02*
X111784342Y-95649523D01*
X111784342Y-95649523D02*
X111879580Y-95601904D01*
X111879580Y-95601904D02*
X111927200Y-95554285D01*
X111927200Y-95554285D02*
X111974819Y-95459047D01*
X111974819Y-95459047D02*
X111974819Y-95173333D01*
X111974819Y-95173333D02*
X111927200Y-95078095D01*
X111927200Y-95078095D02*
X111879580Y-95030476D01*
D11*
%TO.C,kibuzzard-67194008*%
G36*
X110284384Y-78054521D02*
G01*
X110370137Y-78070959D01*
X110370137Y-78849041D01*
X110287671Y-78865479D01*
X110198082Y-78870959D01*
X110107123Y-78861507D01*
X110035890Y-78833151D01*
X109981781Y-78781507D01*
X109942192Y-78702192D01*
X109924231Y-78632664D01*
X109913455Y-78548280D01*
X109909863Y-78449041D01*
X110029315Y-78449041D01*
X110033760Y-78560944D01*
X110047093Y-78646788D01*
X110069315Y-78706575D01*
X110121507Y-78759178D01*
X110198082Y-78776712D01*
X110247397Y-78766849D01*
X110247397Y-78154247D01*
X110198082Y-78144384D01*
X110122192Y-78161370D01*
X110069863Y-78212329D01*
X110047336Y-78268828D01*
X110033820Y-78347732D01*
X110029315Y-78449041D01*
X109909863Y-78449041D01*
X109914075Y-78346610D01*
X109926712Y-78260685D01*
X109947774Y-78191267D01*
X109977260Y-78138356D01*
X110031750Y-78088737D01*
X110105358Y-78058965D01*
X110198082Y-78049041D01*
X110284384Y-78054521D01*
G37*
G36*
X109125479Y-78057945D02*
G01*
X109178904Y-78084658D01*
X109219863Y-78134247D01*
X109250685Y-78211781D01*
X109264992Y-78280030D01*
X109273577Y-78362770D01*
X109276438Y-78460000D01*
X109273577Y-78557230D01*
X109264992Y-78639970D01*
X109250685Y-78708219D01*
X109219863Y-78785753D01*
X109178904Y-78835342D01*
X109160274Y-78844658D01*
X109125479Y-78862055D01*
X109057260Y-78870959D01*
X108989041Y-78862055D01*
X108935616Y-78835342D01*
X108894658Y-78785753D01*
X108863836Y-78708219D01*
X108849528Y-78639970D01*
X108840944Y-78557230D01*
X108838082Y-78460000D01*
X108952055Y-78460000D01*
X108953516Y-78537930D01*
X108957900Y-78603683D01*
X108965205Y-78657260D01*
X108980411Y-78716986D01*
X108999726Y-78753699D01*
X109057260Y-78778904D01*
X109112055Y-78756438D01*
X109146027Y-78679178D01*
X108955342Y-78349315D01*
X108952877Y-78400548D01*
X108952055Y-78460000D01*
X108838082Y-78460000D01*
X108840944Y-78362770D01*
X108849528Y-78280030D01*
X108860964Y-78225479D01*
X108972877Y-78225479D01*
X109160274Y-78550959D01*
X109162466Y-78460000D01*
X109161005Y-78382070D01*
X109156621Y-78316317D01*
X109149315Y-78262740D01*
X109134110Y-78203014D01*
X109114795Y-78166301D01*
X109057260Y-78141096D01*
X109005753Y-78160274D01*
X108972877Y-78225479D01*
X108860964Y-78225479D01*
X108863836Y-78211781D01*
X108894658Y-78134247D01*
X108935616Y-78084658D01*
X108989041Y-78057945D01*
X109057260Y-78049041D01*
X109125479Y-78057945D01*
G37*
G36*
X109791507Y-78155342D02*
G01*
X109668767Y-78155342D01*
X109668767Y-78764658D01*
X109791507Y-78764658D01*
X109791507Y-78860000D01*
X109418904Y-78860000D01*
X109418904Y-78764658D01*
X109541644Y-78764658D01*
X109541644Y-78155342D01*
X109418904Y-78155342D01*
X109418904Y-78060000D01*
X109791507Y-78060000D01*
X109791507Y-78155342D01*
G37*
G36*
X108703288Y-78171781D02*
G01*
X108703288Y-78279178D01*
X108514795Y-78173973D01*
X108512603Y-78175068D01*
X108512603Y-78860000D01*
X108389863Y-78860000D01*
X108389863Y-78060000D01*
X108511507Y-78060000D01*
X108703288Y-78171781D01*
G37*
%TO.C,kibuzzard-67193FFA*%
G36*
X107774247Y-78054521D02*
G01*
X107860000Y-78070959D01*
X107860000Y-78849041D01*
X107777534Y-78865479D01*
X107687945Y-78870959D01*
X107596986Y-78861507D01*
X107525753Y-78833151D01*
X107471644Y-78781507D01*
X107432055Y-78702192D01*
X107414094Y-78632664D01*
X107403318Y-78548280D01*
X107399726Y-78449041D01*
X107519178Y-78449041D01*
X107523623Y-78560944D01*
X107536956Y-78646788D01*
X107559178Y-78706575D01*
X107611370Y-78759178D01*
X107687945Y-78776712D01*
X107737260Y-78766849D01*
X107737260Y-78154247D01*
X107687945Y-78144384D01*
X107612055Y-78161370D01*
X107559726Y-78212329D01*
X107537199Y-78268828D01*
X107523683Y-78347732D01*
X107519178Y-78449041D01*
X107399726Y-78449041D01*
X107403938Y-78346610D01*
X107416575Y-78260685D01*
X107437637Y-78191267D01*
X107467123Y-78138356D01*
X107521613Y-78088737D01*
X107595221Y-78058965D01*
X107687945Y-78049041D01*
X107774247Y-78054521D01*
G37*
G36*
X106615342Y-78057945D02*
G01*
X106668767Y-78084658D01*
X106709726Y-78134247D01*
X106740548Y-78211781D01*
X106754855Y-78280030D01*
X106763440Y-78362770D01*
X106766301Y-78460000D01*
X106763440Y-78557230D01*
X106754855Y-78639970D01*
X106740548Y-78708219D01*
X106709726Y-78785753D01*
X106668767Y-78835342D01*
X106650137Y-78844658D01*
X106615342Y-78862055D01*
X106547123Y-78870959D01*
X106478904Y-78862055D01*
X106425479Y-78835342D01*
X106384521Y-78785753D01*
X106353699Y-78708219D01*
X106339391Y-78639970D01*
X106330807Y-78557230D01*
X106327945Y-78460000D01*
X106441918Y-78460000D01*
X106443379Y-78537930D01*
X106447763Y-78603683D01*
X106455068Y-78657260D01*
X106470274Y-78716986D01*
X106489589Y-78753699D01*
X106547123Y-78778904D01*
X106601918Y-78756438D01*
X106635890Y-78679178D01*
X106445205Y-78349315D01*
X106442740Y-78400548D01*
X106441918Y-78460000D01*
X106327945Y-78460000D01*
X106330807Y-78362770D01*
X106339391Y-78280030D01*
X106350827Y-78225479D01*
X106462740Y-78225479D01*
X106650137Y-78550959D01*
X106652329Y-78460000D01*
X106650868Y-78382070D01*
X106646484Y-78316317D01*
X106639178Y-78262740D01*
X106623973Y-78203014D01*
X106604658Y-78166301D01*
X106547123Y-78141096D01*
X106495616Y-78160274D01*
X106462740Y-78225479D01*
X106350827Y-78225479D01*
X106353699Y-78211781D01*
X106384521Y-78134247D01*
X106425479Y-78084658D01*
X106478904Y-78057945D01*
X106547123Y-78049041D01*
X106615342Y-78057945D01*
G37*
G36*
X106067397Y-78057945D02*
G01*
X106120822Y-78084658D01*
X106161781Y-78134247D01*
X106192603Y-78211781D01*
X106206910Y-78280030D01*
X106215495Y-78362770D01*
X106218356Y-78460000D01*
X106215495Y-78557230D01*
X106206910Y-78639970D01*
X106192603Y-78708219D01*
X106161781Y-78785753D01*
X106120822Y-78835342D01*
X106102192Y-78844658D01*
X106067397Y-78862055D01*
X105999178Y-78870959D01*
X105930959Y-78862055D01*
X105877534Y-78835342D01*
X105836575Y-78785753D01*
X105805753Y-78708219D01*
X105791446Y-78639970D01*
X105782861Y-78557230D01*
X105780000Y-78460000D01*
X105893973Y-78460000D01*
X105895434Y-78537930D01*
X105899817Y-78603683D01*
X105907123Y-78657260D01*
X105922329Y-78716986D01*
X105941644Y-78753699D01*
X105999178Y-78778904D01*
X106053973Y-78756438D01*
X106087945Y-78679178D01*
X105897260Y-78349315D01*
X105894795Y-78400548D01*
X105893973Y-78460000D01*
X105780000Y-78460000D01*
X105782861Y-78362770D01*
X105791446Y-78280030D01*
X105802881Y-78225479D01*
X105914795Y-78225479D01*
X106102192Y-78550959D01*
X106104384Y-78460000D01*
X106102922Y-78382070D01*
X106098539Y-78316317D01*
X106091233Y-78262740D01*
X106076027Y-78203014D01*
X106056712Y-78166301D01*
X105999178Y-78141096D01*
X105947671Y-78160274D01*
X105914795Y-78225479D01*
X105802881Y-78225479D01*
X105805753Y-78211781D01*
X105836575Y-78134247D01*
X105877534Y-78084658D01*
X105930959Y-78057945D01*
X105999178Y-78049041D01*
X106067397Y-78057945D01*
G37*
G36*
X107281370Y-78155342D02*
G01*
X107158630Y-78155342D01*
X107158630Y-78764658D01*
X107281370Y-78764658D01*
X107281370Y-78860000D01*
X106908767Y-78860000D01*
X106908767Y-78764658D01*
X107031507Y-78764658D01*
X107031507Y-78155342D01*
X106908767Y-78155342D01*
X106908767Y-78060000D01*
X107281370Y-78060000D01*
X107281370Y-78155342D01*
G37*
%TO.C,kibuzzard-67193FCE*%
G36*
X102437397Y-78424110D02*
G01*
X102614932Y-78424110D01*
X102614932Y-78515068D01*
X102437397Y-78515068D01*
X102437397Y-78745205D01*
X102320137Y-78745205D01*
X102320137Y-78515068D01*
X102143699Y-78515068D01*
X102143699Y-78424110D01*
X102320137Y-78424110D01*
X102320137Y-78197260D01*
X102437397Y-78197260D01*
X102437397Y-78424110D01*
G37*
G36*
X100806956Y-77993303D02*
G01*
X100868326Y-78006088D01*
X100931644Y-78027397D01*
X100931644Y-78129315D01*
X100846712Y-78094795D01*
X100769452Y-78083288D01*
X100706134Y-78094977D01*
X100668143Y-78130046D01*
X100655479Y-78188493D01*
X100665342Y-78250137D01*
X100694932Y-78292603D01*
X100746712Y-78317260D01*
X100823151Y-78325479D01*
X100845068Y-78325479D01*
X100845068Y-78421918D01*
X100823151Y-78421918D01*
X100740959Y-78430274D01*
X100687260Y-78455342D01*
X100657671Y-78499315D01*
X100647808Y-78564384D01*
X100656438Y-78630548D01*
X100682329Y-78677808D01*
X100725479Y-78706164D01*
X100785890Y-78715616D01*
X100867260Y-78704384D01*
X100946986Y-78670685D01*
X100946986Y-78775890D01*
X100860959Y-78802192D01*
X100771644Y-78810959D01*
X100696301Y-78804262D01*
X100634658Y-78784170D01*
X100586712Y-78750685D01*
X100552466Y-78703805D01*
X100531918Y-78643531D01*
X100525068Y-78569863D01*
X100533973Y-78492877D01*
X100560685Y-78433973D01*
X100605205Y-78393151D01*
X100667534Y-78370411D01*
X100667534Y-78369315D01*
X100610000Y-78341438D01*
X100568904Y-78299452D01*
X100544247Y-78243356D01*
X100536027Y-78173151D01*
X100549726Y-78096027D01*
X100590822Y-78037808D01*
X100657397Y-78001233D01*
X100747534Y-77989041D01*
X100806956Y-77993303D01*
G37*
G36*
X101902846Y-77993303D02*
G01*
X101964216Y-78006088D01*
X102027534Y-78027397D01*
X102027534Y-78129315D01*
X101942603Y-78094795D01*
X101865342Y-78083288D01*
X101802024Y-78094977D01*
X101764033Y-78130046D01*
X101751370Y-78188493D01*
X101761233Y-78250137D01*
X101790822Y-78292603D01*
X101842603Y-78317260D01*
X101919041Y-78325479D01*
X101940959Y-78325479D01*
X101940959Y-78421918D01*
X101919041Y-78421918D01*
X101836849Y-78430274D01*
X101783151Y-78455342D01*
X101753562Y-78499315D01*
X101743699Y-78564384D01*
X101752329Y-78630548D01*
X101778219Y-78677808D01*
X101821370Y-78706164D01*
X101881781Y-78715616D01*
X101963151Y-78704384D01*
X102042877Y-78670685D01*
X102042877Y-78775890D01*
X101956849Y-78802192D01*
X101867534Y-78810959D01*
X101792192Y-78804262D01*
X101730548Y-78784170D01*
X101682603Y-78750685D01*
X101648356Y-78703805D01*
X101627808Y-78643531D01*
X101620959Y-78569863D01*
X101629863Y-78492877D01*
X101656575Y-78433973D01*
X101701096Y-78393151D01*
X101763425Y-78370411D01*
X101763425Y-78369315D01*
X101705890Y-78341438D01*
X101664795Y-78299452D01*
X101640137Y-78243356D01*
X101631918Y-78173151D01*
X101645616Y-78096027D01*
X101686712Y-78037808D01*
X101753288Y-78001233D01*
X101843425Y-77989041D01*
X101902846Y-77993303D01*
G37*
G36*
X101281233Y-78690411D02*
G01*
X101282329Y-78690411D01*
X101407260Y-78000000D01*
X101533288Y-78000000D01*
X101355753Y-78800000D01*
X101213288Y-78800000D01*
X101034658Y-78000000D01*
X101156301Y-78000000D01*
X101281233Y-78690411D01*
G37*
%TO.C,kibuzzard-67193FAE*%
G36*
X99701918Y-77969878D02*
G01*
X99775890Y-78002390D01*
X99833425Y-78056575D01*
X99865788Y-78112397D01*
X99888904Y-78182329D01*
X99902774Y-78266370D01*
X99907397Y-78364521D01*
X99903116Y-78462123D01*
X99890274Y-78546712D01*
X99868870Y-78618288D01*
X99838904Y-78676849D01*
X99800377Y-78722397D01*
X99753288Y-78754932D01*
X99697637Y-78774452D01*
X99633425Y-78780959D01*
X99567915Y-78776697D01*
X99505814Y-78763912D01*
X99447123Y-78742603D01*
X99447123Y-78293288D01*
X99702466Y-78293288D01*
X99702466Y-78386438D01*
X99564384Y-78386438D01*
X99564384Y-78673562D01*
X99630137Y-78686712D01*
X99696986Y-78668082D01*
X99746301Y-78612192D01*
X99768828Y-78551553D01*
X99782344Y-78468995D01*
X99786849Y-78364521D01*
X99782100Y-78262420D01*
X99767854Y-78182603D01*
X99744110Y-78125068D01*
X99689589Y-78072877D01*
X99611507Y-78055479D01*
X99544384Y-78062055D01*
X99474521Y-78081781D01*
X99474521Y-77983151D01*
X99541644Y-77965068D01*
X99611507Y-77959041D01*
X99701918Y-77969878D01*
G37*
G36*
X98707123Y-77964521D02*
G01*
X98792877Y-77980959D01*
X98792877Y-78759041D01*
X98710411Y-78775479D01*
X98620822Y-78780959D01*
X98529863Y-78771507D01*
X98458630Y-78743151D01*
X98404521Y-78691507D01*
X98364932Y-78612192D01*
X98346971Y-78542664D01*
X98336195Y-78458280D01*
X98332603Y-78359041D01*
X98452055Y-78359041D01*
X98456499Y-78470944D01*
X98469833Y-78556788D01*
X98492055Y-78616575D01*
X98544247Y-78669178D01*
X98620822Y-78686712D01*
X98670137Y-78676849D01*
X98670137Y-78064247D01*
X98620822Y-78054384D01*
X98544932Y-78071370D01*
X98492603Y-78122329D01*
X98470076Y-78178828D01*
X98456560Y-78257732D01*
X98452055Y-78359041D01*
X98332603Y-78359041D01*
X98336815Y-78256610D01*
X98349452Y-78170685D01*
X98370514Y-78101267D01*
X98400000Y-78048356D01*
X98454490Y-77998737D01*
X98528097Y-77968965D01*
X98620822Y-77959041D01*
X98707123Y-77964521D01*
G37*
G36*
X99030685Y-78550822D02*
G01*
X99033973Y-78550822D01*
X99204932Y-77970000D01*
X99332055Y-77970000D01*
X99332055Y-78770000D01*
X99211507Y-78770000D01*
X99211507Y-78189178D01*
X99209315Y-78189178D01*
X99038356Y-78770000D01*
X98915616Y-78770000D01*
X98915616Y-77970000D01*
X99030685Y-77970000D01*
X99030685Y-78550822D01*
G37*
G36*
X96660685Y-78550822D02*
G01*
X96663973Y-78550822D01*
X96834932Y-77970000D01*
X96962055Y-77970000D01*
X96962055Y-78770000D01*
X96841507Y-78770000D01*
X96841507Y-78189178D01*
X96839315Y-78189178D01*
X96668356Y-78770000D01*
X96545616Y-78770000D01*
X96545616Y-77970000D01*
X96660685Y-77970000D01*
X96660685Y-78550822D01*
G37*
G36*
X96337123Y-77964521D02*
G01*
X96422877Y-77980959D01*
X96422877Y-78759041D01*
X96340411Y-78775479D01*
X96250822Y-78780959D01*
X96159863Y-78771507D01*
X96088630Y-78743151D01*
X96034521Y-78691507D01*
X95994932Y-78612192D01*
X95976971Y-78542664D01*
X95966195Y-78458280D01*
X95962603Y-78359041D01*
X96082055Y-78359041D01*
X96086499Y-78470944D01*
X96099833Y-78556788D01*
X96122055Y-78616575D01*
X96174247Y-78669178D01*
X96250822Y-78686712D01*
X96300137Y-78676849D01*
X96300137Y-78064247D01*
X96250822Y-78054384D01*
X96174932Y-78071370D01*
X96122603Y-78122329D01*
X96100076Y-78178828D01*
X96086560Y-78257732D01*
X96082055Y-78359041D01*
X95962603Y-78359041D01*
X95966815Y-78256610D01*
X95979452Y-78170685D01*
X96000514Y-78101267D01*
X96030000Y-78048356D01*
X96084490Y-77998737D01*
X96158097Y-77968965D01*
X96250822Y-77959041D01*
X96337123Y-77964521D01*
G37*
G36*
X97331918Y-77969878D02*
G01*
X97405890Y-78002390D01*
X97463425Y-78056575D01*
X97495788Y-78112397D01*
X97518904Y-78182329D01*
X97532774Y-78266370D01*
X97537397Y-78364521D01*
X97533116Y-78462123D01*
X97520274Y-78546712D01*
X97498870Y-78618288D01*
X97468904Y-78676849D01*
X97430377Y-78722397D01*
X97383288Y-78754932D01*
X97327637Y-78774452D01*
X97263425Y-78780959D01*
X97197915Y-78776697D01*
X97135814Y-78763912D01*
X97077123Y-78742603D01*
X97077123Y-78293288D01*
X97332466Y-78293288D01*
X97332466Y-78386438D01*
X97194384Y-78386438D01*
X97194384Y-78673562D01*
X97260137Y-78686712D01*
X97326986Y-78668082D01*
X97376301Y-78612192D01*
X97398828Y-78551553D01*
X97412344Y-78468995D01*
X97416849Y-78364521D01*
X97412100Y-78262420D01*
X97397854Y-78182603D01*
X97374110Y-78125068D01*
X97319589Y-78072877D01*
X97241507Y-78055479D01*
X97174384Y-78062055D01*
X97104521Y-78081781D01*
X97104521Y-77983151D01*
X97171644Y-77965068D01*
X97241507Y-77959041D01*
X97331918Y-77969878D01*
G37*
%TO.C,kibuzzard-67193F40*%
G36*
X107265890Y-52735342D02*
G01*
X107143151Y-52735342D01*
X107143151Y-53344658D01*
X107265890Y-53344658D01*
X107265890Y-53440000D01*
X106893288Y-53440000D01*
X106893288Y-53344658D01*
X107016027Y-53344658D01*
X107016027Y-52735342D01*
X106893288Y-52735342D01*
X106893288Y-52640000D01*
X107265890Y-52640000D01*
X107265890Y-52735342D01*
G37*
G36*
X106583942Y-52635129D02*
G01*
X106638554Y-52653394D01*
X106682329Y-52683836D01*
X106725479Y-52749589D01*
X106739863Y-52837260D01*
X106728493Y-52915068D01*
X106694384Y-52979726D01*
X106656697Y-53017717D01*
X106604277Y-53054247D01*
X106537123Y-53089315D01*
X106490137Y-53117534D01*
X106458767Y-53149589D01*
X106441096Y-53188493D01*
X106435205Y-53237260D01*
X106442877Y-53288356D01*
X106465890Y-53325479D01*
X106502603Y-53348082D01*
X106551370Y-53355616D01*
X106615540Y-53347702D01*
X106676545Y-53323957D01*
X106734384Y-53284384D01*
X106734384Y-53398356D01*
X106678128Y-53427580D01*
X106616027Y-53445114D01*
X106548082Y-53450959D01*
X106463260Y-53442192D01*
X106397288Y-53415890D01*
X106350164Y-53372055D01*
X106321890Y-53310685D01*
X106312466Y-53231781D01*
X106324247Y-53147123D01*
X106359589Y-53079452D01*
X106399650Y-53040365D01*
X106457002Y-53002009D01*
X106531644Y-52964384D01*
X106580350Y-52931629D01*
X106609574Y-52887428D01*
X106619315Y-52831781D01*
X106611644Y-52786849D01*
X106588630Y-52752877D01*
X106552192Y-52731507D01*
X106504247Y-52724384D01*
X106419041Y-52736164D01*
X106334384Y-52771507D01*
X106334384Y-52661918D01*
X106393318Y-52643653D01*
X106454688Y-52632694D01*
X106518493Y-52629041D01*
X106583942Y-52635129D01*
G37*
G36*
X107623151Y-53149589D02*
G01*
X107625342Y-53149589D01*
X107692192Y-52640000D01*
X107835753Y-52640000D01*
X107877397Y-53440000D01*
X107770000Y-53440000D01*
X107751370Y-52760548D01*
X107748082Y-52760548D01*
X107685616Y-53253699D01*
X107581507Y-53253699D01*
X107513562Y-52760548D01*
X107512466Y-52760548D01*
X107496027Y-53440000D01*
X107378767Y-53440000D01*
X107419315Y-52640000D01*
X107557397Y-52640000D01*
X107623151Y-53149589D01*
G37*
G36*
X106059863Y-52638356D02*
G01*
X106119589Y-52666301D01*
X106164932Y-52716986D01*
X106197945Y-52794521D01*
X106212861Y-52862222D01*
X106221811Y-52944049D01*
X106224795Y-53040000D01*
X106221811Y-53135951D01*
X106212861Y-53217778D01*
X106197945Y-53285479D01*
X106164932Y-53363014D01*
X106119589Y-53413699D01*
X106059863Y-53441644D01*
X105983699Y-53450959D01*
X105907534Y-53441644D01*
X105847808Y-53413699D01*
X105802466Y-53363014D01*
X105769452Y-53285479D01*
X105754536Y-53217778D01*
X105745586Y-53135951D01*
X105742603Y-53040000D01*
X105858767Y-53040000D01*
X105862055Y-53147945D01*
X105871918Y-53230685D01*
X105888356Y-53288219D01*
X105926986Y-53338767D01*
X105983699Y-53355616D01*
X106040411Y-53338767D01*
X106079041Y-53288219D01*
X106095479Y-53230685D01*
X106105342Y-53147945D01*
X106108630Y-53040000D01*
X106105342Y-52932055D01*
X106095479Y-52849315D01*
X106079041Y-52791781D01*
X106040411Y-52741233D01*
X105983699Y-52724384D01*
X105926986Y-52741233D01*
X105888356Y-52791781D01*
X105871918Y-52849315D01*
X105862055Y-52932055D01*
X105858767Y-53040000D01*
X105742603Y-53040000D01*
X105745586Y-52944049D01*
X105754536Y-52862222D01*
X105769452Y-52794521D01*
X105802466Y-52716986D01*
X105847808Y-52666301D01*
X105907534Y-52638356D01*
X105983699Y-52629041D01*
X106059863Y-52638356D01*
G37*
%TO.C,kibuzzard-6717FCAE*%
G36*
X96480685Y-53210822D02*
G01*
X96483973Y-53210822D01*
X96654932Y-52630000D01*
X96782055Y-52630000D01*
X96782055Y-53430000D01*
X96661507Y-53430000D01*
X96661507Y-52849178D01*
X96659315Y-52849178D01*
X96488356Y-53430000D01*
X96365616Y-53430000D01*
X96365616Y-52630000D01*
X96480685Y-52630000D01*
X96480685Y-53210822D01*
G37*
G36*
X96157123Y-52624521D02*
G01*
X96242877Y-52640959D01*
X96242877Y-53419041D01*
X96160411Y-53435479D01*
X96070822Y-53440959D01*
X95979863Y-53431507D01*
X95908630Y-53403151D01*
X95854521Y-53351507D01*
X95814932Y-53272192D01*
X95796971Y-53202664D01*
X95786195Y-53118280D01*
X95782603Y-53019041D01*
X95902055Y-53019041D01*
X95906499Y-53130944D01*
X95919833Y-53216788D01*
X95942055Y-53276575D01*
X95994247Y-53329178D01*
X96070822Y-53346712D01*
X96120137Y-53336849D01*
X96120137Y-52724247D01*
X96070822Y-52714384D01*
X95994932Y-52731370D01*
X95942603Y-52782329D01*
X95920076Y-52838828D01*
X95906560Y-52917732D01*
X95902055Y-53019041D01*
X95782603Y-53019041D01*
X95786815Y-52916610D01*
X95799452Y-52830685D01*
X95820514Y-52761267D01*
X95850000Y-52708356D01*
X95904490Y-52658737D01*
X95978097Y-52628965D01*
X96070822Y-52619041D01*
X96157123Y-52624521D01*
G37*
G36*
X97151918Y-52629878D02*
G01*
X97225890Y-52662390D01*
X97283425Y-52716575D01*
X97315788Y-52772397D01*
X97338904Y-52842329D01*
X97352774Y-52926370D01*
X97357397Y-53024521D01*
X97353116Y-53122123D01*
X97340274Y-53206712D01*
X97318870Y-53278288D01*
X97288904Y-53336849D01*
X97250377Y-53382397D01*
X97203288Y-53414932D01*
X97147637Y-53434452D01*
X97083425Y-53440959D01*
X97017915Y-53436697D01*
X96955814Y-53423912D01*
X96897123Y-53402603D01*
X96897123Y-52953288D01*
X97152466Y-52953288D01*
X97152466Y-53046438D01*
X97014384Y-53046438D01*
X97014384Y-53333562D01*
X97080137Y-53346712D01*
X97146986Y-53328082D01*
X97196301Y-53272192D01*
X97218828Y-53211553D01*
X97232344Y-53128995D01*
X97236849Y-53024521D01*
X97232100Y-52922420D01*
X97217854Y-52842603D01*
X97194110Y-52785068D01*
X97139589Y-52732877D01*
X97061507Y-52715479D01*
X96994384Y-52722055D01*
X96924521Y-52741781D01*
X96924521Y-52643151D01*
X96991644Y-52625068D01*
X97061507Y-52619041D01*
X97151918Y-52629878D01*
G37*
D12*
%TO.C,U3*%
X98302500Y-83240000D02*
X124302500Y-83240000D01*
X98302500Y-109240000D02*
X98302500Y-83240000D01*
X122302500Y-89240000D02*
X122302500Y-103240000D01*
X122302500Y-103240000D02*
X124302500Y-103240000D01*
X124302500Y-83240000D02*
X124302500Y-89240000D01*
X124302500Y-89240000D02*
X122302500Y-89240000D01*
X124302500Y-103240000D02*
X124302500Y-109240000D01*
X124302500Y-109240000D02*
X98302500Y-109240000D01*
D13*
X97902500Y-92240000D02*
G75*
G02*
X97702500Y-92240000I-100000J0D01*
G01*
X97702500Y-92240000D02*
G75*
G02*
X97902500Y-92240000I100000J0D01*
G01*
D11*
%TO.C,kibuzzard-67193F1F*%
G36*
X104817778Y-52645129D02*
G01*
X104872390Y-52663394D01*
X104916164Y-52693836D01*
X104959315Y-52759589D01*
X104973699Y-52847260D01*
X104962329Y-52925068D01*
X104928219Y-52989726D01*
X104890533Y-53027717D01*
X104838113Y-53064247D01*
X104770959Y-53099315D01*
X104723973Y-53127534D01*
X104692603Y-53159589D01*
X104674932Y-53198493D01*
X104669041Y-53247260D01*
X104676712Y-53298356D01*
X104699726Y-53335479D01*
X104736438Y-53358082D01*
X104785205Y-53365616D01*
X104849376Y-53357702D01*
X104910381Y-53333957D01*
X104968219Y-53294384D01*
X104968219Y-53408356D01*
X104911963Y-53437580D01*
X104849863Y-53455114D01*
X104781918Y-53460959D01*
X104697096Y-53452192D01*
X104631123Y-53425890D01*
X104584000Y-53382055D01*
X104555726Y-53320685D01*
X104546301Y-53241781D01*
X104558082Y-53157123D01*
X104593425Y-53089452D01*
X104633486Y-53050365D01*
X104690837Y-53012009D01*
X104765479Y-52974384D01*
X104814186Y-52941629D01*
X104843409Y-52897428D01*
X104853151Y-52841781D01*
X104845479Y-52796849D01*
X104822466Y-52762877D01*
X104786027Y-52741507D01*
X104738082Y-52734384D01*
X104652877Y-52746164D01*
X104568219Y-52781507D01*
X104568219Y-52671918D01*
X104627154Y-52653653D01*
X104688524Y-52642694D01*
X104752329Y-52639041D01*
X104817778Y-52645129D01*
G37*
G36*
X104232432Y-52645291D02*
G01*
X104288082Y-52664041D01*
X104335171Y-52695291D01*
X104373699Y-52739041D01*
X104403664Y-52795291D01*
X104425068Y-52864041D01*
X104437911Y-52945291D01*
X104442192Y-53039041D01*
X104437860Y-53137928D01*
X104424863Y-53223630D01*
X104403202Y-53296147D01*
X104372877Y-53355479D01*
X104333887Y-53401627D01*
X104286233Y-53434589D01*
X104229914Y-53454366D01*
X104164932Y-53460959D01*
X104091781Y-53454110D01*
X104025753Y-53433562D01*
X104025753Y-53332740D01*
X104088219Y-53358219D01*
X104146301Y-53366712D01*
X104199878Y-53357610D01*
X104243714Y-53330304D01*
X104277808Y-53284795D01*
X104302161Y-53221081D01*
X104316773Y-53139163D01*
X104321644Y-53039041D01*
X104317230Y-52946286D01*
X104303988Y-52870396D01*
X104281918Y-52811370D01*
X104251020Y-52769209D01*
X104211294Y-52743912D01*
X104162740Y-52735479D01*
X104137534Y-52739863D01*
X104137534Y-52910822D01*
X104020274Y-52910822D01*
X104020274Y-52663151D01*
X104090137Y-52645068D01*
X104168219Y-52639041D01*
X104232432Y-52645291D01*
G37*
G36*
X103750685Y-53000685D02*
G01*
X103752877Y-53000685D01*
X103752877Y-52650000D01*
X103875616Y-52650000D01*
X103875616Y-53450000D01*
X103752877Y-53450000D01*
X103752877Y-53066438D01*
X103750685Y-53066438D01*
X103558904Y-53450000D01*
X103426301Y-53450000D01*
X103641096Y-53031370D01*
X103431781Y-52650000D01*
X103563288Y-52650000D01*
X103750685Y-53000685D01*
G37*
%TO.C,kibuzzard-67193F4E*%
G36*
X108792603Y-52725342D02*
G01*
X108669863Y-52725342D01*
X108669863Y-53334658D01*
X108792603Y-53334658D01*
X108792603Y-53430000D01*
X108420000Y-53430000D01*
X108420000Y-53334658D01*
X108542740Y-53334658D01*
X108542740Y-52725342D01*
X108420000Y-52725342D01*
X108420000Y-52630000D01*
X108792603Y-52630000D01*
X108792603Y-52725342D01*
G37*
G36*
X109206545Y-52625129D02*
G01*
X109261157Y-52643394D01*
X109304932Y-52673836D01*
X109348082Y-52739589D01*
X109362466Y-52827260D01*
X109351096Y-52905068D01*
X109316986Y-52969726D01*
X109279300Y-53007717D01*
X109226880Y-53044247D01*
X109159726Y-53079315D01*
X109112740Y-53107534D01*
X109081370Y-53139589D01*
X109063699Y-53178493D01*
X109057808Y-53227260D01*
X109065479Y-53278356D01*
X109088493Y-53315479D01*
X109125205Y-53338082D01*
X109173973Y-53345616D01*
X109238143Y-53337702D01*
X109299148Y-53313957D01*
X109356986Y-53274384D01*
X109356986Y-53388356D01*
X109300731Y-53417580D01*
X109238630Y-53435114D01*
X109170685Y-53440959D01*
X109085863Y-53432192D01*
X109019890Y-53405890D01*
X108972767Y-53362055D01*
X108944493Y-53300685D01*
X108935068Y-53221781D01*
X108946849Y-53137123D01*
X108982192Y-53069452D01*
X109022253Y-53030365D01*
X109079604Y-52992009D01*
X109154247Y-52954384D01*
X109202953Y-52921629D01*
X109232177Y-52877428D01*
X109241918Y-52821781D01*
X109234247Y-52776849D01*
X109211233Y-52742877D01*
X109174795Y-52721507D01*
X109126849Y-52714384D01*
X109041644Y-52726164D01*
X108956986Y-52761507D01*
X108956986Y-52651918D01*
X109015921Y-52633653D01*
X109077291Y-52622694D01*
X109141096Y-52619041D01*
X109206545Y-52625129D01*
G37*
G36*
X110245753Y-53139589D02*
G01*
X110247945Y-53139589D01*
X110314795Y-52630000D01*
X110458356Y-52630000D01*
X110500000Y-53430000D01*
X110392603Y-53430000D01*
X110373973Y-52750548D01*
X110370685Y-52750548D01*
X110308219Y-53243699D01*
X110204110Y-53243699D01*
X110136164Y-52750548D01*
X110135068Y-52750548D01*
X110118630Y-53430000D01*
X110001370Y-53430000D01*
X110041918Y-52630000D01*
X110180000Y-52630000D01*
X110245753Y-53139589D01*
G37*
G36*
X109778356Y-52628356D02*
G01*
X109838082Y-52656301D01*
X109883425Y-52706986D01*
X109916438Y-52784521D01*
X109931355Y-52852222D01*
X109940304Y-52934049D01*
X109943288Y-53030000D01*
X109940304Y-53125951D01*
X109931355Y-53207778D01*
X109916438Y-53275479D01*
X109883425Y-53353014D01*
X109838082Y-53403699D01*
X109778356Y-53431644D01*
X109702192Y-53440959D01*
X109626027Y-53431644D01*
X109566301Y-53403699D01*
X109520959Y-53353014D01*
X109487945Y-53275479D01*
X109473029Y-53207778D01*
X109464079Y-53125951D01*
X109461096Y-53030000D01*
X109577260Y-53030000D01*
X109580548Y-53137945D01*
X109590411Y-53220685D01*
X109606849Y-53278219D01*
X109645479Y-53328767D01*
X109702192Y-53345616D01*
X109758904Y-53328767D01*
X109797534Y-53278219D01*
X109813973Y-53220685D01*
X109823836Y-53137945D01*
X109827123Y-53030000D01*
X109823836Y-52922055D01*
X109813973Y-52839315D01*
X109797534Y-52781781D01*
X109758904Y-52731233D01*
X109702192Y-52714384D01*
X109645479Y-52731233D01*
X109606849Y-52781781D01*
X109590411Y-52839315D01*
X109580548Y-52922055D01*
X109577260Y-53030000D01*
X109461096Y-53030000D01*
X109464079Y-52934049D01*
X109473029Y-52852222D01*
X109487945Y-52784521D01*
X109520959Y-52706986D01*
X109566301Y-52656301D01*
X109626027Y-52628356D01*
X109702192Y-52619041D01*
X109778356Y-52628356D01*
G37*
%TO.C,kibuzzard-67193F6C*%
G36*
X111997778Y-52645129D02*
G01*
X112052390Y-52663394D01*
X112096164Y-52693836D01*
X112139315Y-52759589D01*
X112153699Y-52847260D01*
X112142329Y-52925068D01*
X112108219Y-52989726D01*
X112070533Y-53027717D01*
X112018113Y-53064247D01*
X111950959Y-53099315D01*
X111903973Y-53127534D01*
X111872603Y-53159589D01*
X111854932Y-53198493D01*
X111849041Y-53247260D01*
X111856712Y-53298356D01*
X111879726Y-53335479D01*
X111916438Y-53358082D01*
X111965205Y-53365616D01*
X112029376Y-53357702D01*
X112090381Y-53333957D01*
X112148219Y-53294384D01*
X112148219Y-53408356D01*
X112091963Y-53437580D01*
X112029863Y-53455114D01*
X111961918Y-53460959D01*
X111877096Y-53452192D01*
X111811123Y-53425890D01*
X111764000Y-53382055D01*
X111735726Y-53320685D01*
X111726301Y-53241781D01*
X111738082Y-53157123D01*
X111773425Y-53089452D01*
X111813486Y-53050365D01*
X111870837Y-53012009D01*
X111945479Y-52974384D01*
X111994186Y-52941629D01*
X112023409Y-52897428D01*
X112033151Y-52841781D01*
X112025479Y-52796849D01*
X112002466Y-52762877D01*
X111966027Y-52741507D01*
X111918082Y-52734384D01*
X111832877Y-52746164D01*
X111748219Y-52781507D01*
X111748219Y-52671918D01*
X111807154Y-52653653D01*
X111868524Y-52642694D01*
X111932329Y-52639041D01*
X111997778Y-52645129D01*
G37*
G36*
X111449833Y-52645129D02*
G01*
X111504444Y-52663394D01*
X111548219Y-52693836D01*
X111591370Y-52759589D01*
X111605753Y-52847260D01*
X111594384Y-52925068D01*
X111560274Y-52989726D01*
X111522588Y-53027717D01*
X111470167Y-53064247D01*
X111403014Y-53099315D01*
X111356027Y-53127534D01*
X111324658Y-53159589D01*
X111306986Y-53198493D01*
X111301096Y-53247260D01*
X111308767Y-53298356D01*
X111331781Y-53335479D01*
X111368493Y-53358082D01*
X111417260Y-53365616D01*
X111481431Y-53357702D01*
X111542435Y-53333957D01*
X111600274Y-53294384D01*
X111600274Y-53408356D01*
X111544018Y-53437580D01*
X111481918Y-53455114D01*
X111413973Y-53460959D01*
X111329151Y-53452192D01*
X111263178Y-53425890D01*
X111216055Y-53382055D01*
X111187781Y-53320685D01*
X111178356Y-53241781D01*
X111190137Y-53157123D01*
X111225479Y-53089452D01*
X111265540Y-53050365D01*
X111322892Y-53012009D01*
X111397534Y-52974384D01*
X111446240Y-52941629D01*
X111475464Y-52897428D01*
X111485205Y-52841781D01*
X111477534Y-52796849D01*
X111454521Y-52762877D01*
X111418082Y-52741507D01*
X111370137Y-52734384D01*
X111284932Y-52746164D01*
X111200274Y-52781507D01*
X111200274Y-52671918D01*
X111259209Y-52653653D01*
X111320578Y-52642694D01*
X111384384Y-52639041D01*
X111449833Y-52645129D01*
G37*
G36*
X112400274Y-53230822D02*
G01*
X112403562Y-53230822D01*
X112574521Y-52650000D01*
X112701644Y-52650000D01*
X112701644Y-53450000D01*
X112581096Y-53450000D01*
X112581096Y-52869178D01*
X112578904Y-52869178D01*
X112407945Y-53450000D01*
X112285205Y-53450000D01*
X112285205Y-52650000D01*
X112400274Y-52650000D01*
X112400274Y-53230822D01*
G37*
%TO.C,kibuzzard-67193FDF*%
G36*
X103953288Y-78165342D02*
G01*
X103790000Y-78165342D01*
X103790000Y-78870000D01*
X103667260Y-78870000D01*
X103667260Y-78165342D01*
X103503973Y-78165342D01*
X103503973Y-78070000D01*
X103953288Y-78070000D01*
X103953288Y-78165342D01*
G37*
G36*
X104328874Y-78065129D02*
G01*
X104383486Y-78083394D01*
X104427260Y-78113836D01*
X104470411Y-78179589D01*
X104484795Y-78267260D01*
X104473425Y-78345068D01*
X104439315Y-78409726D01*
X104401629Y-78447717D01*
X104349209Y-78484247D01*
X104282055Y-78519315D01*
X104235068Y-78547534D01*
X104203699Y-78579589D01*
X104186027Y-78618493D01*
X104180137Y-78667260D01*
X104187808Y-78718356D01*
X104210822Y-78755479D01*
X104247534Y-78778082D01*
X104296301Y-78785616D01*
X104360472Y-78777702D01*
X104421476Y-78753957D01*
X104479315Y-78714384D01*
X104479315Y-78828356D01*
X104423059Y-78857580D01*
X104360959Y-78875114D01*
X104293014Y-78880959D01*
X104208192Y-78872192D01*
X104142219Y-78845890D01*
X104095096Y-78802055D01*
X104066822Y-78740685D01*
X104057397Y-78661781D01*
X104069178Y-78577123D01*
X104104521Y-78509452D01*
X104144581Y-78470365D01*
X104201933Y-78432009D01*
X104276575Y-78394384D01*
X104325282Y-78361629D01*
X104354505Y-78317428D01*
X104364247Y-78261781D01*
X104356575Y-78216849D01*
X104333562Y-78182877D01*
X104297123Y-78161507D01*
X104249178Y-78154384D01*
X104163973Y-78166164D01*
X104079315Y-78201507D01*
X104079315Y-78091918D01*
X104138250Y-78073653D01*
X104199619Y-78062694D01*
X104263425Y-78059041D01*
X104328874Y-78065129D01*
G37*
G36*
X104912801Y-78061476D02*
G01*
X104974901Y-78068782D01*
X105036027Y-78080959D01*
X105036027Y-78870000D01*
X104913288Y-78870000D01*
X104913288Y-78537945D01*
X104870548Y-78537945D01*
X104804247Y-78559315D01*
X104783288Y-78590137D01*
X104765342Y-78639863D01*
X104701781Y-78870000D01*
X104575753Y-78870000D01*
X104643699Y-78646438D01*
X104678767Y-78560411D01*
X104720411Y-78506164D01*
X104720411Y-78503973D01*
X104666712Y-78472603D01*
X104628356Y-78427808D01*
X104605342Y-78369589D01*
X104597671Y-78297945D01*
X104717123Y-78297945D01*
X104725890Y-78365342D01*
X104752192Y-78409726D01*
X104799315Y-78434384D01*
X104870548Y-78442603D01*
X104913288Y-78442603D01*
X104913288Y-78163151D01*
X104849726Y-78154384D01*
X104791370Y-78163014D01*
X104750000Y-78188904D01*
X104725342Y-78233425D01*
X104717123Y-78297945D01*
X104597671Y-78297945D01*
X104604429Y-78222755D01*
X104624703Y-78162298D01*
X104658493Y-78116575D01*
X104706773Y-78084612D01*
X104770518Y-78065434D01*
X104849726Y-78059041D01*
X104912801Y-78061476D01*
G37*
%TD*%
M02*
