M48
; DRILL file {KiCad 8.0.2-8.0.2-0~ubuntu20.04.1} date 2024-11-25T18:10:02+0530
; FORMAT={-:-/ absolute / metric / decimal}
; #@! TF.CreationDate,2024-11-25T18:10:02+05:30
; #@! TF.GenerationSoftware,Kicad,Pcbnew,8.0.2-8.0.2-0~ubuntu20.04.1
; #@! TF.FileFunction,MixedPlating,1,2
FMAT,2
METRIC
; #@! TA.AperFunction,Plated,PTH,ViaDrill
T1C0.400
; #@! TA.AperFunction,Plated,PTH,ComponentDrill
T2C0.762
; #@! TA.AperFunction,Plated,PTH,ComponentDrill
T3C1.000
; #@! TA.AperFunction,Plated,PTH,ComponentDrill
T4C1.040
; #@! TA.AperFunction,Plated,PTH,ComponentDrill
T5C2.000
%
G90
G05
T1
X94.91Y-64.34
X96.69Y-56.58
X97.13Y-93.93
X99.24Y-81.92
X116.53Y-62.2
X117.01Y-54.8
T2
X96.69Y-54.78
X96.69Y-80.18
X99.23Y-54.78
X99.23Y-80.18
X101.77Y-54.78
X101.77Y-80.18
X104.31Y-54.78
X104.31Y-80.18
X106.85Y-54.78
X106.85Y-80.18
X109.39Y-54.78
X109.39Y-80.18
X111.93Y-54.78
X111.93Y-80.18
X114.47Y-54.78
X114.47Y-80.18
T3
X99.802Y-92.43
X99.802Y-94.97
X99.802Y-97.51
X99.802Y-100.05
T4
X92.504Y-64.49
X92.504Y-67.03
X92.504Y-69.57
X92.504Y-72.11
X92.504Y-74.65
X92.504Y-77.19
X92.504Y-79.73
X92.504Y-82.27
X92.504Y-84.81
X92.504Y-87.35
X92.504Y-89.89
X92.504Y-92.43
X92.504Y-94.97
X92.504Y-97.51
X92.504Y-100.05
X92.504Y-102.59
X92.504Y-105.13
X92.504Y-107.67
X92.504Y-110.21
X117.904Y-64.49
X117.904Y-67.03
X117.904Y-69.57
X117.904Y-72.11
X117.904Y-74.65
X117.904Y-77.19
X117.904Y-79.73
X117.904Y-82.27
X117.904Y-84.81
X117.904Y-87.35
X117.904Y-89.89
X117.904Y-92.43
X117.904Y-94.97
X117.904Y-97.51
X117.904Y-100.05
X117.904Y-102.59
X117.904Y-105.13
X117.904Y-107.67
X117.904Y-110.21
T5
X100.302Y-85.24
X100.302Y-107.24
X122.302Y-85.24
X122.302Y-107.24
M30
