%TF.GenerationSoftware,KiCad,Pcbnew,8.0.2-8.0.2-0~ubuntu20.04.1*%
%TF.CreationDate,2024-11-25T18:09:51+05:30*%
%TF.ProjectId,VayuVani-GS,56617975-5661-46e6-992d-47532e6b6963,rev?*%
%TF.SameCoordinates,Original*%
%TF.FileFunction,Soldermask,Top*%
%TF.FilePolarity,Negative*%
%FSLAX46Y46*%
G04 Gerber Fmt 4.6, Leading zero omitted, Abs format (unit mm)*
G04 Created by KiCad (PCBNEW 8.0.2-8.0.2-0~ubuntu20.04.1) date 2024-11-25 18:09:51*
%MOMM*%
%LPD*%
G01*
G04 APERTURE LIST*
G04 Aperture macros list*
%AMRoundRect*
0 Rectangle with rounded corners*
0 $1 Rounding radius*
0 $2 $3 $4 $5 $6 $7 $8 $9 X,Y pos of 4 corners*
0 Add a 4 corners polygon primitive as box body*
4,1,4,$2,$3,$4,$5,$6,$7,$8,$9,$2,$3,0*
0 Add four circle primitives for the rounded corners*
1,1,$1+$1,$2,$3*
1,1,$1+$1,$4,$5*
1,1,$1+$1,$6,$7*
1,1,$1+$1,$8,$9*
0 Add four rect primitives between the rounded corners*
20,1,$1+$1,$2,$3,$4,$5,0*
20,1,$1+$1,$4,$5,$6,$7,0*
20,1,$1+$1,$6,$7,$8,$9,0*
20,1,$1+$1,$8,$9,$2,$3,0*%
G04 Aperture macros list end*
%ADD10C,1.524000*%
%ADD11RoundRect,0.102000X-0.780000X-0.780000X0.780000X-0.780000X0.780000X0.780000X-0.780000X0.780000X0*%
%ADD12C,1.764000*%
%ADD13RoundRect,0.102000X-0.754000X0.754000X-0.754000X-0.754000X0.754000X-0.754000X0.754000X0.754000X0*%
%ADD14C,1.712000*%
%ADD15C,3.204000*%
G04 APERTURE END LIST*
D10*
%TO.C,U2*%
X96690000Y-80180000D03*
X99230000Y-80180000D03*
X101770000Y-80180000D03*
X104310000Y-80180000D03*
X106850000Y-80180000D03*
X109390000Y-80180000D03*
X111930000Y-80180000D03*
X114470000Y-80180000D03*
X96690000Y-54780000D03*
X99230000Y-54780000D03*
X101770000Y-54780000D03*
X104310000Y-54780000D03*
X106850000Y-54780000D03*
X109390000Y-54780000D03*
X111930000Y-54780000D03*
X114470000Y-54780000D03*
%TD*%
D11*
%TO.C,U1*%
X92504000Y-64490000D03*
D12*
X92504000Y-67030000D03*
X92504000Y-69570000D03*
X92504000Y-72110000D03*
X92504000Y-74650000D03*
X92504000Y-77190000D03*
X92504000Y-79730000D03*
X92504000Y-82270000D03*
X92504000Y-84810000D03*
X92504000Y-87350000D03*
X92504000Y-89890000D03*
X92504000Y-92430000D03*
X92504000Y-94970000D03*
X92504000Y-97510000D03*
X92504000Y-100050000D03*
X92504000Y-102590000D03*
X92504000Y-105130000D03*
X92504000Y-107670000D03*
X92504000Y-110210000D03*
X117904000Y-64490000D03*
X117904000Y-67030000D03*
X117904000Y-69570000D03*
X117904000Y-72110000D03*
X117904000Y-74650000D03*
X117904000Y-77190000D03*
X117904000Y-79730000D03*
X117904000Y-82270000D03*
X117904000Y-84810000D03*
X117904000Y-87350000D03*
X117904000Y-89890000D03*
X117904000Y-92430000D03*
X117904000Y-94970000D03*
X117904000Y-97510000D03*
X117904000Y-100050000D03*
X117904000Y-102590000D03*
X117904000Y-105130000D03*
X117904000Y-107670000D03*
X117904000Y-110210000D03*
%TD*%
D13*
%TO.C,U3*%
X99802500Y-92430000D03*
D14*
X99802500Y-94970000D03*
X99802500Y-97510000D03*
X99802500Y-100050000D03*
D15*
X100302500Y-85240000D03*
X100302500Y-107240000D03*
X122302500Y-107240000D03*
X122302500Y-85240000D03*
%TD*%
M02*
