%TF.GenerationSoftware,KiCad,Pcbnew,8.0.2-8.0.2-0~ubuntu20.04.1*%
%TF.CreationDate,2024-11-25T18:09:51+05:30*%
%TF.ProjectId,VayuVani-GS,56617975-5661-46e6-992d-47532e6b6963,rev?*%
%TF.SameCoordinates,Original*%
%TF.FileFunction,Legend,Top*%
%TF.FilePolarity,Positive*%
%FSLAX46Y46*%
G04 Gerber Fmt 4.6, Leading zero omitted, Abs format (unit mm)*
G04 Created by KiCad (PCBNEW 8.0.2-8.0.2-0~ubuntu20.04.1) date 2024-11-25 18:09:51*
%MOMM*%
%LPD*%
G01*
G04 APERTURE LIST*
%ADD10C,0.250000*%
%ADD11C,0.100000*%
%ADD12C,0.150000*%
%ADD13C,0.127000*%
%ADD14C,0.200000*%
G04 APERTURE END LIST*
D10*
X121927330Y-116337952D02*
X122165425Y-117004619D01*
X122165425Y-117004619D02*
X122403520Y-116337952D01*
X122974949Y-116004619D02*
X123070187Y-116004619D01*
X123070187Y-116004619D02*
X123165425Y-116052238D01*
X123165425Y-116052238D02*
X123213044Y-116099857D01*
X123213044Y-116099857D02*
X123260663Y-116195095D01*
X123260663Y-116195095D02*
X123308282Y-116385571D01*
X123308282Y-116385571D02*
X123308282Y-116623666D01*
X123308282Y-116623666D02*
X123260663Y-116814142D01*
X123260663Y-116814142D02*
X123213044Y-116909380D01*
X123213044Y-116909380D02*
X123165425Y-116957000D01*
X123165425Y-116957000D02*
X123070187Y-117004619D01*
X123070187Y-117004619D02*
X122974949Y-117004619D01*
X122974949Y-117004619D02*
X122879711Y-116957000D01*
X122879711Y-116957000D02*
X122832092Y-116909380D01*
X122832092Y-116909380D02*
X122784473Y-116814142D01*
X122784473Y-116814142D02*
X122736854Y-116623666D01*
X122736854Y-116623666D02*
X122736854Y-116385571D01*
X122736854Y-116385571D02*
X122784473Y-116195095D01*
X122784473Y-116195095D02*
X122832092Y-116099857D01*
X122832092Y-116099857D02*
X122879711Y-116052238D01*
X122879711Y-116052238D02*
X122974949Y-116004619D01*
X123736854Y-116909380D02*
X123784473Y-116957000D01*
X123784473Y-116957000D02*
X123736854Y-117004619D01*
X123736854Y-117004619D02*
X123689235Y-116957000D01*
X123689235Y-116957000D02*
X123736854Y-116909380D01*
X123736854Y-116909380D02*
X123736854Y-117004619D01*
X124736853Y-117004619D02*
X124165425Y-117004619D01*
X124451139Y-117004619D02*
X124451139Y-116004619D01*
X124451139Y-116004619D02*
X124355901Y-116147476D01*
X124355901Y-116147476D02*
X124260663Y-116242714D01*
X124260663Y-116242714D02*
X124165425Y-116290333D01*
D11*
X95427419Y-83701904D02*
X96236942Y-83701904D01*
X96236942Y-83701904D02*
X96332180Y-83654285D01*
X96332180Y-83654285D02*
X96379800Y-83606666D01*
X96379800Y-83606666D02*
X96427419Y-83511428D01*
X96427419Y-83511428D02*
X96427419Y-83320952D01*
X96427419Y-83320952D02*
X96379800Y-83225714D01*
X96379800Y-83225714D02*
X96332180Y-83178095D01*
X96332180Y-83178095D02*
X96236942Y-83130476D01*
X96236942Y-83130476D02*
X95427419Y-83130476D01*
X95522657Y-82701904D02*
X95475038Y-82654285D01*
X95475038Y-82654285D02*
X95427419Y-82559047D01*
X95427419Y-82559047D02*
X95427419Y-82320952D01*
X95427419Y-82320952D02*
X95475038Y-82225714D01*
X95475038Y-82225714D02*
X95522657Y-82178095D01*
X95522657Y-82178095D02*
X95617895Y-82130476D01*
X95617895Y-82130476D02*
X95713133Y-82130476D01*
X95713133Y-82130476D02*
X95855990Y-82178095D01*
X95855990Y-82178095D02*
X96427419Y-82749523D01*
X96427419Y-82749523D02*
X96427419Y-82130476D01*
D12*
X105027801Y-60174612D02*
X105027801Y-60984448D01*
X105027801Y-60984448D02*
X105075438Y-61079723D01*
X105075438Y-61079723D02*
X105123076Y-61127361D01*
X105123076Y-61127361D02*
X105218350Y-61174998D01*
X105218350Y-61174998D02*
X105408900Y-61174998D01*
X105408900Y-61174998D02*
X105504175Y-61127361D01*
X105504175Y-61127361D02*
X105551812Y-61079723D01*
X105551812Y-61079723D02*
X105599450Y-60984448D01*
X105599450Y-60984448D02*
X105599450Y-60174612D01*
X106599835Y-61174998D02*
X106028186Y-61174998D01*
X106314011Y-61174998D02*
X106314011Y-60174612D01*
X106314011Y-60174612D02*
X106218736Y-60317524D01*
X106218736Y-60317524D02*
X106123461Y-60412799D01*
X106123461Y-60412799D02*
X106028186Y-60460437D01*
%TO.C,U2*%
D11*
X95420000Y-81805600D02*
X115740000Y-81805600D01*
X115740000Y-53105600D01*
X95420000Y-53105600D01*
X95420000Y-81805600D01*
D13*
%TO.C,U1*%
X91254000Y-57100000D02*
X119154000Y-57100000D01*
X91254000Y-111500000D02*
X91254000Y-57100000D01*
X119154000Y-57100000D02*
X119154000Y-111500000D01*
X119154000Y-111500000D02*
X91254000Y-111500000D01*
D14*
X90704000Y-64490000D02*
G75*
G02*
X90504000Y-64490000I-100000J0D01*
G01*
X90504000Y-64490000D02*
G75*
G02*
X90704000Y-64490000I100000J0D01*
G01*
%TD*%
M02*
